<svg xmlns="http://www.w3.org/2000/svg" xmlns:xlink="http://www.w3.org/1999/xlink" xml:space="preserve" version="1.1" style="shape-rendering:geometricPrecision;text-rendering:geometricPrecision;image-rendering:optimizeQuality;" viewBox="0 0 2024 2208.75" x="0px" y="0px" fill-rule="evenodd" clip-rule="evenodd"><defs><style type="text/css">
   
    .fil0 {fill:black}
   
  </style></defs><g><path class="fil0" d="M901 580l217 0c129,0 471,360 550,432l271 48c55,10 92,63 82,118l-2 10c-10,55 -63,92 -118,82l-305 -54c-26,-5 -47,-18 -62,-38 -2,-2 -5,-4 -7,-6l-223 -201 0 357 419 -70c84,-14 164,43 178,127l3 16c14,84 -43,164 -127,178l-253 42c0,1 0,1 0,2l-3 16c-14,84 -94,141 -178,127l-344 -57 -344 57c-84,14 -164,-43 -178,-127l-3 -16c0,-1 0,-1 0,-2l-253 -42c-84,-14 -141,-94 -127,-178l3 -16c14,-84 94,-141 178,-127l440 73 0 -356 -219 198c-2,2 -5,4 -7,6 -15,19 -37,33 -62,38l-305 54c-55,10 -108,-27 -118,-82l-2 -10c-10,-55 27,-108 82,-118l271 -48c76,-68 420,-432 546,-432zm101 -580c146,0 264,118 264,264 0,146 -118,264 -264,264 -146,0 -264,-118 -264,-264 0,-146 118,-264 264,-264z"/></g><text x="0" y="1782" fill="#000000" font-size="5px" font-weight="bold" font-family="'Helvetica Neue', Helvetica, Arial-Unicode, Arial, Sans-serif">Created by Mariia Nisiforova</text><text x="0" y="1787" fill="#000000" font-size="5px" font-weight="bold" font-family="'Helvetica Neue', Helvetica, Arial-Unicode, Arial, Sans-serif">from the Noun Project</text></svg>